<?xml version="1.0" encoding="UTF-8" standalone="no"?>
<svg
   xmlns:dc="http://purl.org/dc/elements/1.1/"
   xmlns:cc="http://creativecommons.org/ns#"
   xmlns:rdf="http://www.w3.org/1999/02/22-rdf-syntax-ns#"
   xmlns:svg="http://www.w3.org/2000/svg"
   xmlns="http://www.w3.org/2000/svg"
   xmlns:xlink="http://www.w3.org/1999/xlink"
   xmlns:sodipodi="http://sodipodi.sourceforge.net/DTD/sodipodi-0.dtd"
   xmlns:inkscape="http://www.inkscape.org/namespaces/inkscape"
   inkscape:version="1.0 (4035a4fb49, 2020-05-01)"
   sodipodi:docname="panel-background.svg"
   version="1"
   height="210.939"
   width="205"
   id="svg129">
  <metadata
     id="metadata69">
    <rdf:RDF>
      <cc:Work
         rdf:about="">
        <dc:format>image/svg+xml</dc:format>
        <dc:type
           rdf:resource="http://purl.org/dc/dcmitype/StillImage" />
      </cc:Work>
    </rdf:RDF>
  </metadata>
  <sodipodi:namedview
     inkscape:current-layer="svg129"
     inkscape:window-maximized="1"
     inkscape:window-y="180"
     inkscape:window-x="2560"
     inkscape:cy="105.4695"
     inkscape:cx="102.5"
     inkscape:zoom="3.3896056"
     showgrid="false"
     id="namedview67"
     inkscape:window-height="1054"
     inkscape:window-width="1920"
     inkscape:pageshadow="2"
     inkscape:pageopacity="0"
     guidetolerance="10"
     gridtolerance="10"
     objecttolerance="10"
     borderopacity="1"
     bordercolor="#666666"
     pagecolor="#ffffff" />
  <defs
     id="defs15">
    <radialGradient
       xlink:href="#linearGradient4465"
       gradientUnits="userSpaceOnUse"
       gradientTransform="matrix(-2.0000092,-4.2453419e-5,4.2452431e-5,-1.9999627,2105.9707,1910.6713)"
       fy="905.362"
       fx="984"
       r="8.5"
       cy="905.362"
       cx="984"
       id="radialGradient4263" />
    <linearGradient
       id="linearGradient4465">
      <stop
         offset="0"
         style="stop-color:#000000;stop-opacity:0.50980395"
         id="stop3" />
      <stop
         offset="1"
         style="stop-color:#000000;stop-opacity:0"
         id="stop5" />
    </linearGradient>
    <linearGradient
       xlink:href="#linearGradient4465"
       gradientUnits="userSpaceOnUse"
       gradientTransform="matrix(0.71428571,0,0,1,-317.71429,1250.3622)"
       y2="-952.362"
       y1="-969.362"
       x2="83.6"
       x1="83.6"
       id="linearGradient4259" />
    <radialGradient
       xlink:href="#linearGradient4465"
       gradientUnits="userSpaceOnUse"
       gradientTransform="matrix(-1.8927835e-5,1.9999979,-1.9999736,-1.8927605e-5,1998.719,-1868.0418)"
       fy="905.362"
       fx="984"
       r="8.5"
       cy="905.362"
       cx="984"
       id="radialGradient3382" />
    <linearGradient
       xlink:href="#linearGradient4465"
       gradientUnits="userSpaceOnUse"
       y2="298"
       y1="281"
       x2="-260"
       x1="-260"
       id="linearGradient4452" />
    <radialGradient
       xlink:href="#linearGradient4465"
       gradientUnits="userSpaceOnUse"
       gradientTransform="matrix(2.0000159,1.4152386e-5,-1.4152136e-5,1.9999805,-1777.8209,-1762.9634)"
       fy="906.453"
       fx="982.909"
       r="8.5"
       cy="906.453"
       cx="982.909"
       id="radialGradient4255" />
    <radialGradient
       xlink:href="#linearGradient4465"
       gradientUnits="userSpaceOnUse"
       gradientTransform="matrix(-9.4993794e-7,-2.0000005,1.9999801,-9.4992883e-7,-1672.7052,2017.9403)"
       fy="905.362"
       fx="984"
       r="8.5"
       cy="905.362"
       cx="984"
       id="radialGradient4275" />
    <linearGradient
       xlink:href="#linearGradient4465"
       gradientUnits="userSpaceOnUse"
       gradientTransform="matrix(0.71428571,0,0,1,-317.71429,1250.3622)"
       y2="-952.362"
       y1="-969.362"
       x2="83.6"
       x1="83.6"
       id="linearGradient4385" />
    <linearGradient
       xlink:href="#linearGradient4465"
       gradientUnits="userSpaceOnUse"
       gradientTransform="matrix(0.71428571,0,0,1,-317.71429,1250.3622)"
       y2="-952.362"
       y1="-969.362"
       x2="83.6"
       x1="83.6"
       id="linearGradient4387" />
  </defs>
  <path
     d="m 121,49.938995 h 10 v -2 c 0,-2.77 2.23,-5 5,-5 h 2 v -10 h -17 z"
     style="fill:url(#radialGradient4275);opacity:0"
     id="shadow-topleft" />
  <g
     style="opacity:0"
     transform="matrix(-1,0,0,1,419,-207.061)"
     id="shadow-left">
    <rect
       transform="rotate(-90)"
       y="288"
       x="-307"
       height="10"
       width="50"
       style="fill:url(#linearGradient4385)"
       id="rect18" />
    <rect
       transform="translate(3,2)"
       y="257"
       x="278"
       height="1"
       width="7"
       style="opacity:0;fill:#3498db"
       id="rect20" />
  </g>
  <path
     d="M 205,99.938998 H 195 V 101.939 c 0,2.77 -2.23,5 -5,5 h -2 v 10 h 17 z"
     style="fill:url(#radialGradient3382);opacity:0"
     id="shadow-bottomright" />
  <g
     style="opacity:0"
     transform="rotate(90,313.03051,131.9695)"
     id="shadow-bottom">
    <rect
       transform="rotate(-90)"
       y="288"
       x="-307"
       height="10"
       width="50"
       style="fill:url(#linearGradient4387)"
       id="rect24" />
    <rect
       transform="translate(3,2)"
       y="257"
       x="278"
       height="1"
       width="7"
       style="opacity:0;fill:#3498db"
       id="rect26" />
  </g>
  <g
     style="opacity:0"
     transform="translate(-93,-207.061)"
     id="shadow-right">
    <rect
       transform="rotate(-90)"
       y="288"
       x="-307"
       height="10"
       width="50"
       style="fill:url(#linearGradient4452)"
       id="rect29" />
    <rect
       transform="translate(3,2)"
       y="257"
       x="278"
       height="1"
       width="7"
       style="opacity:0;fill:#3498db"
       id="rect31" />
  </g>
  <g
     style="opacity:0"
     transform="matrix(0,-1,-1,0,445,330.939)"
     id="shadow-top">
    <rect
       transform="rotate(-90)"
       y="288"
       x="-307"
       height="10"
       width="50"
       style="fill:url(#linearGradient4259)"
       id="rect34" />
    <rect
       transform="translate(3,2)"
       y="257"
       x="278"
       height="1"
       width="7"
       style="opacity:0;fill:#3498db"
       id="rect36" />
  </g>
  <path
     d="m 188,32.938995 v 10 h 2 c 2.77,0 5,2.23 5,5 v 2 h 10 v -17 z"
     style="fill:url(#radialGradient4255);opacity:0"
     id="shadow-topright" />
  <path
     d="m 138,116.939 v -10 h -2 c -2.77,0 -5,-2.23 -5,-5 V 99.938998 H 121 V 116.939 Z"
     style="fill:url(#radialGradient4263);opacity:0"
     id="shadow-bottomleft" />
  <rect
     y="51.94"
     x="7"
     height="50"
     width="50"
     style="fill:#1a1a1a;opacity:0.8"
     id="center" />
  <g
     style="opacity:0.8;fill:#1a1a1a"
     transform="translate(-183,-207.06082)"
     id="topleft">
    <path
       d="m 190.00001,251.99982 v 7 h -7 v -2 c 0,-2.77 2.23,-5 5,-5 z"
       style="fill:#1a1a1a"
       id="path42" />
  </g>
  <g
     style="opacity:0.8;fill:#1a1a1a"
     transform="translate(-183,-207.06082)"
     id="left">
    <path
       d="m 183.00002,258.99981 v 50 l 7,10e-6 v -50 z"
       style="fill:#1a1a1a"
       id="path45" />
  </g>
  <g
     style="opacity:0.8;fill:#1a1a1a"
     transform="translate(-183,-207.06083)"
     id="right">
    <path
       d="m 247,258.99982 v 50 l -7,10e-6 v -50 z"
       style="fill:#1a1a1a"
       id="path48" />
  </g>
  <g
     style="opacity:0.8;fill:#1a1a1a"
     transform="translate(-183,-207.06091)"
     id="bottomleft">
    <path
       d="m 190.00001,315.99991 v -7 h -7 v 2 c 0,2.77 2.23,5 5,5 z"
       style="fill:#1a1a1a"
       id="path51" />
  </g>
  <g
     style="opacity:0.8;fill:#1a1a1a"
     transform="translate(-183,-207.06095)"
     id="bottom">
    <path
       d="M 189.99998,315.99995 H 240 v -7 h -50.00001 z"
       style="fill:#1a1a1a"
       id="path54" />
  </g>
  <g
     style="opacity:0.8;fill:#1a1a1a"
     transform="translate(-183,-207.06091)"
     id="bottomright">
    <path
       d="m 240,315.99991 v -7 h 7 v 2 c 0,2.77 -2.23,5 -5,5 z"
       style="fill:#1a1a1a"
       id="path57" />
  </g>
  <g
     style="opacity:0.8;fill:#1a1a1a"
     transform="translate(-183,-207.06082)"
     id="topright">
    <path
       d="m 240,251.99982 v 7 h 7 v -2 c 0,-2.77 -2.23,-5 -5,-5 z"
       style="fill:#1a1a1a"
       id="path60" />
  </g>
  <g
     style="opacity:0.8;fill:#1a1a1a"
     transform="translate(-183,-207.06082)"
     id="top">
    <path
       d="M 189.99998,251.99982 H 240 v 7 h -50.00001 z"
       style="fill:#1a1a1a"
       id="path63" />
  </g>
  <rect
     y="72.94"
     x="195"
     height="4"
     width="10"
     style="fill:#ff00ff"
     id="shadow-hint-right-margin" />
  <rect
     y="106.94"
     x="161"
     height="10"
     width="4"
     style="fill:#ff00ff"
     id="shadow-hint-bottom-margin" />
  <rect
     y="72.94"
     x="121"
     height="4"
     width="10"
     style="fill:#ff00ff"
     id="shadow-hint-left-margin" />
  <rect
     y="32.94"
     x="162"
     height="10"
     width="4"
     style="fill:#ff00ff"
     id="shadow-hint-top-margin" />
  <rect
     y="44.94"
     x="29"
     height="2"
     width="4"
     style="fill:#1a1a1a;opacity:0.8"
     id="hint-top-margin" />
  <rect
     y="106.94"
     x="29"
     height="2"
     width="4"
     style="fill:#1a1a1a;opacity:0.8"
     id="hint-bottom-margin" />
  <rect
     y="72.94"
     x="0"
     height="4"
     width="2"
     style="fill:#1a1a1a;opacity:0.8"
     id="hint-left-margin" />
  <rect
     y="72.94"
     x="62"
     height="4"
     width="2"
     style="fill:#1a1a1a;opacity:0.8"
     id="hint-right-margin" />
  <rect
     y="144.94"
     x="70"
     height="50"
     width="50"
     style="fill:#000000"
     id="mask-center" />
  <path
     d="m 70,137.93887 v 7 h -7 v -2 c 0,-2.77 2.23,-5 5,-5 z"
     style="fill:#000000"
     id="mask-topleft" />
  <path
     d="m 63.00001,144.93886 v 50 l 7,1e-5 v -50 z"
     style="fill:#000000"
     id="mask-left" />
  <path
     d="m 126.99999,144.93887 v 50 l -7,1e-5 v -50 z"
     style="fill:#000000"
     id="mask-right" />
  <path
     d="m 70,201.93896 v -7 h -7 v 2 c 0,2.77 2.23,5 5,5 z"
     style="fill:#000000"
     id="mask-bottomleft" />
  <path
     d="m 69.99997,201.939 h 50.00002 v -7 H 69.99998 Z"
     style="fill:#000000"
     id="mask-bottom" />
  <path
     d="m 119.99999,201.93896 v -7 h 7 v 2 c 0,2.77 -2.23,5 -5,5 z"
     style="fill:#000000"
     id="mask-bottomright" />
  <path
     d="m 119.99999,137.93887 v 7 h 7 v -2 c 0,-2.77 -2.23,-5 -5,-5 z"
     style="fill:#000000"
     id="mask-topright" />
  <path
     d="m 69.99997,137.93887 h 50.00002 v 7 H 69.99998 Z"
     style="fill:#000000"
     id="mask-top" />
  <rect
     y="-.06"
     x="0"
     height="5"
     width="5"
     style="fill:#ff6600"
     id="hint-tile-center" />
  <rect
     y="50"
     x="138"
     height="50"
     width="50"
     style="fill:none"
     id="shadow-center" />
</svg>
