<?xml version="1.0" encoding="UTF-8" standalone="no"?>
<svg
   xmlns:dc="http://purl.org/dc/elements/1.1/"
   xmlns:cc="http://creativecommons.org/ns#"
   xmlns:rdf="http://www.w3.org/1999/02/22-rdf-syntax-ns#"
   xmlns:svg="http://www.w3.org/2000/svg"
   xmlns="http://www.w3.org/2000/svg"
   xmlns:xlink="http://www.w3.org/1999/xlink"
   xmlns:sodipodi="http://sodipodi.sourceforge.net/DTD/sodipodi-0.dtd"
   xmlns:inkscape="http://www.inkscape.org/namespaces/inkscape"
   inkscape:version="1.0 (4035a4fb49, 2020-05-01)"
   sodipodi:docname="background.svg"
   version="1"
   height="210.939"
   width="205"
   id="svg197">
  <metadata
     id="metadata69">
    <rdf:RDF>
      <cc:Work
         rdf:about="">
        <dc:format>image/svg+xml</dc:format>
        <dc:type
           rdf:resource="http://purl.org/dc/dcmitype/StillImage" />
      </cc:Work>
    </rdf:RDF>
  </metadata>
  <sodipodi:namedview
     inkscape:current-layer="svg197"
     inkscape:window-maximized="1"
     inkscape:window-y="28"
     inkscape:window-x="0"
     inkscape:cy="184.10217"
     inkscape:cx="-50.055435"
     inkscape:zoom="3.3896056"
     showgrid="false"
     id="namedview67"
     inkscape:window-height="1386"
     inkscape:window-width="2560"
     inkscape:pageshadow="2"
     inkscape:pageopacity="0"
     guidetolerance="10"
     gridtolerance="10"
     objecttolerance="10"
     borderopacity="1"
     bordercolor="#666666"
     pagecolor="#ffffff" />
  <defs
     id="defs83">
    <radialGradient
       xlink:href="#linearGradient4465"
       gradientUnits="userSpaceOnUse"
       gradientTransform="matrix(-2.0000026,-7.496206e-6,7.4960219e-6,-1.9999534,2105.9959,1910.6286)"
       fy="905.362"
       fx="984"
       r="8.5"
       cy="905.362"
       cx="984"
       id="radialGradient4263" />
    <linearGradient
       id="linearGradient4465">
      <stop
         offset="0"
         style="stop-color:#000000;stop-opacity:0.50980395"
         id="stop71" />
      <stop
         offset="1"
         style="stop-color:#000000;stop-opacity:0"
         id="stop73" />
    </linearGradient>
    <radialGradient
       xlink:href="#linearGradient4465"
       gradientUnits="userSpaceOnUse"
       gradientTransform="matrix(2.0000165,2.3249527e-5,-2.3248996e-5,1.999971,-1777.8133,-1762.9638)"
       fy="906.453"
       fx="982.909"
       r="8.5"
       cy="906.453"
       cx="982.909"
       id="radialGradient4255" />
    <linearGradient
       xlink:href="#linearGradient4465"
       gradientUnits="userSpaceOnUse"
       gradientTransform="matrix(0.71428571,0,0,1,-317.71429,1250.3622)"
       y2="-952.362"
       y1="-969.362"
       x2="83.6"
       x1="83.6"
       id="linearGradient4259" />
    <linearGradient
       xlink:href="#linearGradient4465"
       gradientUnits="userSpaceOnUse"
       y2="298"
       y1="281"
       x2="-260"
       x1="-260"
       id="linearGradient4452" />
    <radialGradient
       xlink:href="#linearGradient4465"
       gradientUnits="userSpaceOnUse"
       gradientTransform="matrix(-1.5053729e-5,2.0000041,-1.9999805,-1.505355e-5,1998.7213,-1868.0515)"
       fy="905.362"
       fx="984"
       r="8.5"
       cy="905.362"
       cx="984"
       id="radialGradient3382" />
    <radialGradient
       xlink:href="#linearGradient4465"
       gradientUnits="userSpaceOnUse"
       gradientTransform="matrix(-4.6111949e-7,-2.0000067,1.9999847,-4.6111438e-7,-1672.7098,2017.946)"
       fy="905.362"
       fx="984"
       r="8.5"
       cy="905.362"
       cx="984"
       id="radialGradient4275" />
    <linearGradient
       xlink:href="#linearGradient4465"
       gradientUnits="userSpaceOnUse"
       gradientTransform="matrix(0.71428571,0,0,1,-317.71429,1250.3622)"
       y2="-952.362"
       y1="-969.362"
       x2="83.6"
       x1="83.6"
       id="linearGradient4315" />
    <linearGradient
       xlink:href="#linearGradient4465"
       gradientUnits="userSpaceOnUse"
       gradientTransform="matrix(0.71428571,0,0,1,-317.71429,1250.3622)"
       y2="-952.362"
       y1="-969.362"
       x2="83.6"
       x1="83.6"
       id="linearGradient4317" />
  </defs>
  <rect
     y="51.94"
     x="7"
     height="50"
     width="50"
     style="fill:#282828;opacity:0.76"
     id="center" />
  <g
     style="opacity:0.85"
     transform="translate(-183,-207.06091)"
     id="topleft">
    <path
       d="m 190.00001,251.99982 v 7 h -7 v -2 c 0,-2.77 2.23,-5 5,-5 z"
       style="fill:#282828;opacity:0.9"
       id="path86" />
  </g>
  <g
     style="opacity:0.85"
     transform="translate(-183,-207.06091)"
     id="left">
    <path
       d="m 183.00002,258.99981 v 50 l 7,10e-6 v -50 z"
       style="fill:#282828;opacity:0.9"
       id="path89" />
  </g>
  <g
     style="opacity:0.85"
     transform="translate(-183,-207.06091)"
     id="right">
    <path
       d="m 247,258.99982 v 50 l -7,10e-6 v -50 z"
       style="fill:#282828;opacity:0.9"
       id="path92" />
  </g>
  <g
     style="opacity:0.85"
     transform="translate(-183,-207.06091)"
     id="bottomleft">
    <path
       d="m 190.00001,315.99991 v -7 h -7 v 2 c 0,2.77 2.23,5 5,5 z"
       style="fill:#282828;opacity:0.9"
       id="path95" />
  </g>
  <g
     style="opacity:0.85"
     transform="translate(-183,-207.06091)"
     id="bottom">
    <path
       d="M 189.99998,315.99995 H 240 v -7 h -50.00001 z"
       style="fill:#282828;opacity:0.9"
       id="path98" />
  </g>
  <g
     style="opacity:0.85"
     transform="translate(-183,-207.06091)"
     id="bottomright">
    <path
       d="m 240,315.99991 v -7 h 7 v 2 c 0,2.77 -2.23,5 -5,5 z"
       style="fill:#282828;opacity:0.9"
       id="path101" />
  </g>
  <g
     style="opacity:0.85"
     transform="translate(-183,-207.06091)"
     id="topright">
    <path
       d="m 240,251.99982 v 7 h 7 v -2 c 0,-2.77 -2.23,-5 -5,-5 z"
       style="fill:#282828;opacity:0.9"
       id="path104" />
  </g>
  <g
     style="opacity:0.85"
     transform="translate(-183,-207.06091)"
     id="top">
    <path
       d="M 189.99998,251.99982 H 240 v 7 h -50.00001 z"
       style="fill:#282828;opacity:0.9"
       id="path107" />
  </g>
  <rect
     y="51.94"
     x="29"
     height="10"
     width="4"
     style="fill:#ff00ff;opacity:0.85"
     id="hint-top-margin" />
  <rect
     y="91.94"
     x="29"
     height="10"
     width="4"
     style="fill:#ff00ff;opacity:0.85"
     id="hint-bottom-margin" />
  <rect
     y="73.94"
     x="7"
     height="4"
     width="10"
     style="fill:#ff00ff;opacity:0.85"
     id="hint-left-margin" />
  <rect
     y="73.94"
     x="47"
     height="4"
     width="10"
     style="fill:#ff00ff;opacity:0.85"
     id="hint-right-margin" />
  <rect
     y="-.06"
     x="0"
     height="5"
     width="5"
     style="fill:#ff6600"
     id="hint-tile-center" />
  <path
     d="m 121,49.93897 h 10 v -2 c 0,-2.77 2.23,-5 5,-5 h 2 v -10 h -17 z"
     style="fill:url(#radialGradient4275);opacity:0.61007714"
     id="shadow-topleft" />
  <g
     style="opacity:0.61007714"
     transform="matrix(-1,0,0,1,419,-207.06102)"
     id="shadow-left">
    <rect
       transform="rotate(-90)"
       y="288"
       x="-307"
       height="10"
       width="50"
       style="fill:url(#linearGradient4315)"
       id="rect168" />
    <rect
       transform="translate(3,2)"
       y="257"
       x="278"
       height="1"
       width="7"
       style="opacity:0;fill:#3498db"
       id="rect170" />
  </g>
  <path
     d="m 205,99.93897 h -10 v 2 c 0,2.77 -2.23,5 -5,5 h -2 v 10 h 17 z"
     style="fill:url(#radialGradient3382);opacity:0.61007714"
     id="shadow-bottomright" />
  <g
     style="opacity:0.61007714"
     transform="rotate(90,313.03052,131.96949)"
     id="shadow-bottom">
    <rect
       transform="rotate(-90)"
       y="288"
       x="-307"
       height="10"
       width="50"
       style="fill:url(#linearGradient4317)"
       id="rect174" />
    <rect
       transform="translate(3,2)"
       y="257"
       x="278"
       height="1"
       width="7"
       style="opacity:0;fill:#3498db"
       id="rect176" />
  </g>
  <g
     style="opacity:0.61007714"
     transform="translate(-93,-207.06102)"
     id="shadow-right">
    <rect
       transform="rotate(-90)"
       y="288"
       x="-307"
       height="10"
       width="50"
       style="fill:url(#linearGradient4452)"
       id="rect179" />
    <rect
       transform="translate(3,2)"
       y="257"
       x="278"
       height="1"
       width="7"
       style="opacity:0;fill:#3498db"
       id="rect181" />
  </g>
  <g
     style="opacity:0.61007714"
     transform="matrix(0,-1,-1,0,445,330.93897)"
     id="shadow-top">
    <rect
       transform="rotate(-90)"
       y="288"
       x="-307"
       height="10"
       width="50"
       style="fill:url(#linearGradient4259)"
       id="rect184" />
    <rect
       transform="translate(3,2)"
       y="257"
       x="278"
       height="1"
       width="7"
       style="opacity:0;fill:#3498db"
       id="rect186" />
  </g>
  <path
     d="m 188,32.93897 v 10 h 2 c 2.77,0 5,2.23 5,5 v 2 h 10 v -17 z"
     style="fill:url(#radialGradient4255);opacity:0.61007714"
     id="shadow-topright" />
  <path
     d="m 138,116.93897 v -10 h -2 c -2.77,0 -5,-2.23 -5,-5 v -2 h -10 v 17 z"
     style="fill:url(#radialGradient4263);opacity:0.61007714"
     id="shadow-bottomleft" />
  <rect
     y="72.94"
     x="195"
     height="4"
     width="10"
     style="fill:#ff00ff;opacity:0.61007714"
     id="shadow-hint-right-margin" />
  <rect
     y="106.94"
     x="161"
     height="10"
     width="4"
     style="fill:#ff00ff;opacity:0.61007714"
     id="shadow-hint-bottom-margin" />
  <rect
     y="72.94"
     x="121"
     height="4"
     width="10"
     style="fill:#ff00ff;opacity:0.61007714"
     id="shadow-hint-left-margin" />
  <rect
     y="32.94"
     x="162"
     height="10"
     width="4"
     style="fill:#ff00ff;opacity:0.61007714"
     id="shadow-hint-top-margin" />
  <rect
     y="144.94"
     x="70"
     height="50"
     width="50"
     style="fill:#000000"
     id="mask-center" />
  <path
     d="m 70.000003,137.93887 v 7 H 63 v -2 c 0,-2.77 2.23,-5 5,-5 z"
     style="fill:#000000"
     id="mask-topleft" />
  <path
     d="m 63.00001,144.93886 v 50 l 7.000003,1e-5 v -50 z"
     style="fill:#000000"
     id="mask-left" />
  <path
     d="m 126.99999,144.93887 v 50 l -7,1e-5 v -50 z"
     style="fill:#000000"
     id="mask-right" />
  <path
     d="m 70.000003,201.93896 v -7 H 63 v 2 c 0,2.77 2.23,5 5,5 z"
     style="fill:#000000"
     id="mask-bottomleft" />
  <path
     d="m 69.999973,201.939 h 50.000017 v -7 H 69.999983 Z"
     style="fill:#000000"
     id="mask-bottom" />
  <path
     d="m 119.99999,201.93896 v -7 h 7 v 2 c 0,2.77 -2.23,5 -5,5 z"
     style="fill:#000000"
     id="mask-bottomright" />
  <path
     d="m 119.99999,137.93887 v 7 h 7 v -2 c 0,-2.77 -2.23,-5 -5,-5 z"
     style="fill:#000000"
     id="mask-topright" />
  <path
     d="m 69.999973,137.93887 h 50.000017 v 7 H 69.999983 Z"
     style="fill:#000000"
     id="mask-top" />
  <rect
     y="50"
     x="138"
     height="50"
     width="50"
     style="fill:none;opacity:0.61007714"
     id="shadow-center" />
</svg>
